<?xml version="1.0" encoding="UTF-8" standalone="no"?>
<!-- Creator: CorelDRAW 2017 -->

<svg
   xmlns:dc="http://purl.org/dc/elements/1.1/"
   xmlns:cc="http://creativecommons.org/ns#"
   xmlns:rdf="http://www.w3.org/1999/02/22-rdf-syntax-ns#"
   xmlns:svg="http://www.w3.org/2000/svg"
   xmlns="http://www.w3.org/2000/svg"
   xmlns:sodipodi="http://sodipodi.sourceforge.net/DTD/sodipodi-0.dtd"
   xmlns:inkscape="http://www.inkscape.org/namespaces/inkscape"
   xml:space="preserve"
   width="1485.6691"
   height="752.41559"
   version="1.1"
   style="clip-rule:evenodd;fill-rule:evenodd;image-rendering:optimizeQuality;shape-rendering:geometricPrecision;text-rendering:geometricPrecision"
   viewBox="0 0 41928.882 21234.84"
   id="svg2"
   inkscape:version="0.91 r13725"
   sodipodi:docname="logo.svg"><metadata
     id="metadata36"><rdf:RDF><cc:Work
         rdf:about=""><dc:format>image/svg+xml</dc:format><dc:type
           rdf:resource="http://purl.org/dc/dcmitype/StillImage" /><dc:title></dc:title></cc:Work></rdf:RDF></metadata><sodipodi:namedview
     pagecolor="#ffffff"
     bordercolor="#666666"
     borderopacity="1"
     objecttolerance="10"
     gridtolerance="10"
     guidetolerance="10"
     inkscape:pageopacity="0"
     inkscape:pageshadow="2"
     inkscape:window-width="1366"
     inkscape:window-height="724"
     id="namedview34"
     showgrid="false"
     inkscape:zoom="0.24878554"
     inkscape:cx="1933.6863"
     inkscape:cy="572.28077"
     inkscape:window-x="0"
     inkscape:window-y="25"
     inkscape:window-maximized="1"
     inkscape:current-layer="svg2"
     fit-margin-top="0"
     fit-margin-left="0"
     fit-margin-right="0"
     fit-margin-bottom="0"
     units="px" /><defs
     id="defs4"><style
       type="text/css"
       id="style6"><![CDATA[
    .str0 {stroke:#00A0E3;stroke-width:399.99;stroke-miterlimit:22.9256}
    .fil1 {fill:none}
    .fil2 {fill:#FEFEFE}
    .fil0 {fill:#00A0E3}
   ]]></style></defs><g
     id="Слой_x0020_1"
     transform="matrix(1.2476366,0,0,1.2496917,-5136.0118,-7940.4946)"><metadata
       id="CorelCorpID_0Corel-Layer" /><g
       id="_1943300593584"><g
         id="g11"><polygon
           class="fil0"
           points="27906.24,11884.39 24307.26,11884.39 24307.26,17799.55 25554.42,17799.55 25554.42,12953.4 27906.24,12953.4 "
           id="polygon13"
           style="fill:#00a0e3" /><path
           class="fil0"
           d="m 29972.99,17799.55 1247.17,0 0,-4846.15 1591.64,0 0,-1069.01 c -1476.81,0 -2953.63,0 -4430.45,0 l 0,1069.01 1591.64,0 0,4846.15 z"
           id="path15"
           inkscape:connector-curvature="0"
           style="fill:#00a0e3" /><path
           class="fil0"
           d="m 37426.3,13042.42 c 98.99,-332.57 197.95,-665.17 296.94,-997.74 -624.18,-179.71 -1221.36,-280.99 -1823.15,-219.15 -3750.23,385.42 -3750.12,5663.61 0,6048.95 601.79,61.84 1198.97,-39.43 1823.15,-219.15 -98.99,-332.57 -197.95,-665.17 -296.94,-997.74 -1073.35,459.17 -2451.53,282.85 -2868.73,-948.13 -166.52,-491.17 -166.52,-1227.74 0,-1718.91 417.2,-1230.98 1795.38,-1407.3 2868.73,-948.13 z"
           id="path17"
           inkscape:connector-curvature="0"
           style="fill:#00a0e3" /></g><g
         id="g19"><g
           id="g21"><path
             class="fil1 str0"
             d="m 5354.18,6514.13 14508.51,0 c 593.42,0 1077.42,484 1077.42,1077.42 l 0,14516.89 c 0,593.41 -484,1077.42 -1077.42,1077.42 l -14508.51,0 c -593.42,0 -1077.42,-484.01 -1077.42,-1077.42 l 0,-14516.89 c 0,-593.42 484,-1077.42 1077.42,-1077.42 z"
             id="path23"
             inkscape:connector-curvature="0"
             style="fill:none;stroke:#00a0e3;stroke-width:320.33441162;stroke-miterlimit:22.92560005" /><path
             id="1"
             class="fil0"
             d="m 5354.18,6514.13 14508.51,0 c 593.42,0 1077.42,484 1077.42,1077.42 l 0,14516.89 c 0,593.41 -484,1077.42 -1077.42,1077.42 l -14508.51,0 c -593.42,0 -1077.42,-484.01 -1077.42,-1077.42 l 0,-14516.89 c 0,-593.42 484,-1077.42 1077.42,-1077.42 z"
             inkscape:connector-curvature="0"
             style="fill:#00a0e3" /></g><path
           class="fil2"
           d="m 11897.98,6514.13 c -147.66,443.55 -259.46,848.57 -364.19,1271.46 -994.59,4015.57 -1100.88,8464.55 -340.41,12533.23 181.49,971.26 418.66,1911.8 657.68,2867.04 l 949.18,0 c -274.98,-722.44 -555.54,-1654.97 -777.3,-2472.27 -135.27,-498.61 -239.35,-969.55 -331.79,-1445.82 -301.09,-1551.45 -379.68,-3170.68 -372.3,-4750.47 6.97,-1496.97 114.9,-2893.6 407.07,-4359.91 189.73,-952.41 441.34,-1888.82 745.57,-2820.14 l 327.86,-823.12 -901.37,0 z"
           id="path26"
           inkscape:connector-curvature="0"
           style="fill:#fefefe" /><path
           class="fil2"
           d="m 20940.11,8972.93 c -1286.55,139.42 -2557.47,695.48 -3561.27,1547.58 -2975.67,2525.82 -2724.39,6836.27 545.63,9075.33 899.91,616.23 1952.44,1016.01 3015.64,1131.21 l 0,-1301.76 c -609.5,-88.13 -1207.17,-236.33 -1779.79,-452.81 -4370.17,-1652.17 -4370.14,-6592.8 0,-8244.97 572.62,-216.48 1170.29,-364.68 1779.79,-452.81 l 0,-1301.77 z"
           id="path28"
           inkscape:connector-curvature="0"
           style="fill:#fefefe" /><path
           class="fil2"
           d="m 19129.13,22063.46 c -624.96,-217.13 -1101.58,-446.86 -1518.3,-728.85 -1447.19,-979.21 -2784.48,-3106.17 -3071.23,-4803.59 -164.39,-972.83 -164.39,-2389.23 0,-3362.06 286.75,-1697.41 1624.04,-3824.37 3071.23,-4803.58 416.72,-281.99 893.34,-511.72 1518.3,-728.85 648.04,-225.18 1284.58,-246.03 1770.39,-337.85 -128.11,-451.87 -544.85,-784.55 -1036.83,-784.55 l -1979.84,0 c -631.55,525.16 -1069.47,904.71 -1472.13,1347.85 -366.67,403.57 -704.14,859.97 -1131.99,1527.29 -654.82,1196.61 -1081.4,2203.94 -1286.43,3581.56 -202.8,1362.77 -202.8,2395.56 0,3758.33 205.03,1377.61 631.61,2384.94 1286.43,3581.55 427.85,667.33 765.32,1123.72 1131.99,1527.3 402.66,443.14 840.58,822.69 1472.13,1347.85 l 1979.84,0 c 494.1,0 912.28,-335.59 1038.44,-790.45 -393.93,-0.14 -960.46,-49.99 -1772,-331.95 z"
           id="path30"
           inkscape:connector-curvature="0"
           style="fill:#fefefe" /><path
           class="fil2"
           d="m 14586.49,6514.13 c -312.26,460.27 -551.5,868.94 -825.68,1463.4 -287.77,623.86 -482.25,1118.31 -640.74,1629.92 -1049.86,3389.8 -1049.86,7095.28 0,10485.08 158.49,511.62 352.97,1006.07 640.74,1629.92 274.18,594.47 513.42,1003.13 825.68,1463.41 l 1392.89,0 c -928.71,-1039.25 -1506.8,-1794.28 -2091.94,-3254.29 -1230.84,-3070.64 -1230.84,-7092.51 0,-10163.15 585.14,-1460.01 1163.23,-2215.04 2091.94,-3254.29 l -1392.89,0 z"
           id="path32"
           inkscape:connector-curvature="0"
           style="fill:#fefefe" /></g></g></g></svg>